<svg id="visual" viewBox="0 0 900 600" width="900" height="600" xmlns="http://www.w3.org/2000/svg" xmlns:xlink="http://www.w3.org/1999/xlink" version="1.1"><rect x="0" y="0" width="900" height="600" fill="#D2B48C"></rect><path d="M283 0L289.8 14.3C296.7 28.7 310.3 57.3 302.3 85.8C294.3 114.3 264.7 142.7 270.3 171.2C276 199.7 317 228.3 324.3 257C331.7 285.7 305.3 314.3 305 343C304.7 371.7 330.3 400.3 334.7 428.8C339 457.3 322 485.7 314.8 514.2C307.7 542.7 310.3 571.3 311.7 585.7L313 600L0 600L0 585.7C0 571.3 0 542.7 0 514.2C0 485.7 0 457.3 0 428.8C0 400.3 0 371.7 0 343C0 314.3 0 285.7 0 257C0 228.3 0 199.7 0 171.2C0 142.7 0 114.3 0 85.8C0 57.3 0 28.7 0 14.3L0 0Z" fill="#d2b48c"></path><path d="M293 0L284.8 14.3C276.7 28.7 260.3 57.3 252.8 85.8C245.3 114.3 246.7 142.7 255 171.2C263.3 199.7 278.7 228.3 273.8 257C269 285.7 244 314.3 227.8 343C211.7 371.7 204.3 400.3 200.2 428.8C196 457.3 195 485.7 208.2 514.2C221.3 542.7 248.7 571.3 262.3 585.7L276 600L0 600L0 585.7C0 571.3 0 542.7 0 514.2C0 485.7 0 457.3 0 428.8C0 400.3 0 371.7 0 343C0 314.3 0 285.7 0 257C0 228.3 0 199.7 0 171.2C0 142.7 0 114.3 0 85.8C0 57.3 0 28.7 0 14.3L0 0Z" fill="#d9c59e"></path><path d="M151 0L153.3 14.3C155.7 28.7 160.3 57.3 157.5 85.8C154.7 114.3 144.3 142.7 152.5 171.2C160.7 199.7 187.3 228.3 202 257C216.7 285.7 219.3 314.3 212.7 343C206 371.7 190 400.3 193.7 428.8C197.3 457.3 220.7 485.7 231.7 514.2C242.7 542.7 241.3 571.3 240.7 585.7L240 600L0 600L0 585.7C0 571.3 0 542.7 0 514.2C0 485.7 0 457.3 0 428.8C0 400.3 0 371.7 0 343C0 314.3 0 285.7 0 257C0 228.3 0 199.7 0 171.2C0 142.7 0 114.3 0 85.8C0 57.3 0 28.7 0 14.3L0 0Z" fill="#e1d5b2"></path><path d="M142 0L141.7 14.3C141.3 28.7 140.7 57.3 146.7 85.8C152.7 114.3 165.3 142.7 164 171.2C162.7 199.7 147.3 228.3 144.2 257C141 285.7 150 314.3 151.2 343C152.3 371.7 145.7 400.3 144 428.8C142.3 457.3 145.7 485.7 138.5 514.2C131.3 542.7 113.7 571.3 104.8 585.7L96 600L0 600L0 585.7C0 571.3 0 542.7 0 514.2C0 485.7 0 457.3 0 428.8C0 400.3 0 371.7 0 343C0 314.3 0 285.7 0 257C0 228.3 0 199.7 0 171.2C0 142.7 0 114.3 0 85.8C0 57.3 0 28.7 0 14.3L0 0Z" fill="#eae5c7"></path><path d="M63 0L61.2 14.3C59.3 28.7 55.7 57.3 62.8 85.8C70 114.3 88 142.7 88.2 171.2C88.3 199.7 70.7 228.3 64.5 257C58.3 285.7 63.7 314.3 65.3 343C67 371.7 65 400.3 68.7 428.8C72.3 457.3 81.7 485.7 87.2 514.2C92.7 542.7 94.3 571.3 95.2 585.7L96 600L0 600L0 585.7C0 571.3 0 542.7 0 514.2C0 485.7 0 457.3 0 428.8C0 400.3 0 371.7 0 343C0 314.3 0 285.7 0 257C0 228.3 0 199.7 0 171.2C0 142.7 0 114.3 0 85.8C0 57.3 0 28.7 0 14.3L0 0Z" fill="#f5f5dc"></path></svg>