<svg id="visual" viewBox="0 0 900 600" width="900" height="600" xmlns="http://www.w3.org/2000/svg" xmlns:xlink="http://www.w3.org/1999/xlink" version="1.1"><rect x="0" y="0" width="900" height="600" fill="#D2B48C"></rect><path d="M0 452L18.8 457.7C37.7 463.3 75.3 474.7 112.8 470.2C150.3 465.7 187.7 445.3 225.2 447C262.7 448.7 300.3 472.3 337.8 481.5C375.3 490.7 412.7 485.3 450.2 471C487.7 456.7 525.3 433.3 562.8 420C600.3 406.7 637.7 403.3 675.2 412.8C712.7 422.3 750.3 444.7 787.8 459.8C825.3 475 862.7 483 881.3 487L900 491L900 601L881.3 601C862.7 601 825.3 601 787.8 601C750.3 601 712.7 601 675.2 601C637.7 601 600.3 601 562.8 601C525.3 601 487.7 601 450.2 601C412.7 601 375.3 601 337.8 601C300.3 601 262.7 601 225.2 601C187.7 601 150.3 601 112.8 601C75.3 601 37.7 601 18.8 601L0 601Z" fill="#f9e1c1"></path><path d="M0 526L18.8 524C37.7 522 75.3 518 112.8 509.7C150.3 501.3 187.7 488.7 225.2 480C262.7 471.3 300.3 466.7 337.8 462.5C375.3 458.3 412.7 454.7 450.2 458C487.7 461.3 525.3 471.7 562.8 470.7C600.3 469.7 637.7 457.3 675.2 458.3C712.7 459.3 750.3 473.7 787.8 474.2C825.3 474.7 862.7 461.3 881.3 454.7L900 448L900 601L881.3 601C862.7 601 825.3 601 787.8 601C750.3 601 712.7 601 675.2 601C637.7 601 600.3 601 562.8 601C525.3 601 487.7 601 450.2 601C412.7 601 375.3 601 337.8 601C300.3 601 262.7 601 225.2 601C187.7 601 150.3 601 112.8 601C75.3 601 37.7 601 18.8 601L0 601Z" fill="#f6ebce"></path><path d="M0 543L18.8 539.3C37.7 535.7 75.3 528.3 112.8 521.5C150.3 514.7 187.7 508.3 225.2 504.5C262.7 500.7 300.3 499.3 337.8 504C375.3 508.7 412.7 519.3 450.2 520.3C487.7 521.3 525.3 512.7 562.8 513C600.3 513.3 637.7 522.7 675.2 529.7C712.7 536.7 750.3 541.3 787.8 540.8C825.3 540.3 862.7 534.7 881.3 531.8L900 529L900 601L881.3 601C862.7 601 825.3 601 787.8 601C750.3 601 712.7 601 675.2 601C637.7 601 600.3 601 562.8 601C525.3 601 487.7 601 450.2 601C412.7 601 375.3 601 337.8 601C300.3 601 262.7 601 225.2 601C187.7 601 150.3 601 112.8 601C75.3 601 37.7 601 18.8 601L0 601Z" fill="#f5f5dc"></path></svg>