<svg id="visual" viewBox="0 0 900 600" width="900" height="600" xmlns="http://www.w3.org/2000/svg" xmlns:xlink="http://www.w3.org/1999/xlink" version="1.1"><rect x="0" y="0" width="900" height="600" fill="#F5F5DC"></rect><path d="M0 506L21.5 492.3C43 478.7 86 451.3 128.8 447.3C171.7 443.3 214.3 462.7 257.2 461.2C300 459.7 343 437.3 385.8 435.7C428.7 434 471.3 453 514.2 449.5C557 446 600 420 642.8 406.2C685.7 392.3 728.3 390.7 771.2 405C814 419.3 857 449.7 878.5 464.8L900 480L900 601L878.5 601C857 601 814 601 771.2 601C728.3 601 685.7 601 642.8 601C600 601 557 601 514.2 601C471.3 601 428.7 601 385.8 601C343 601 300 601 257.2 601C214.3 601 171.7 601 128.8 601C86 601 43 601 21.5 601L0 601Z" fill="#D2B48C" stroke-linecap="round" stroke-linejoin="miter"></path></svg>